<svg width="214" height="56" viewBox="0 0 214 56" fill="none" xmlns="http://www.w3.org/2000/svg">
<path d="M9.85 46V36.3H16.6C24.4 36.3 30.2 32.75 30.2 24.5C30.2 16.05 24.3 12.5 16.6 12.5H2.7V46H9.85ZM16.35 18.85C20.05 18.85 22.7 20.3 22.7 24.5C22.7 28.45 20.05 29.95 16.35 29.95H9.85V18.85H16.35ZM44.4082 46.5C52.0582 46.5 56.9082 41.25 56.9082 33.75C56.9082 26.3 52.0582 21 44.4082 21C36.9582 21 32.1582 26.3 32.1582 33.75C32.1582 41.25 36.9582 46.5 44.4082 46.5ZM44.5082 40.7C41.5082 40.7 39.4082 38.75 39.4082 33.75C39.4082 28.7 41.5082 26.8 44.5082 26.8C47.5582 26.8 49.6582 28.7 49.6582 33.75C49.6582 38.75 47.5582 40.7 44.5082 40.7ZM67.9996 46V33.05C67.9996 29 70.2996 26.35 72.7496 26.35C74.2996 26.35 74.9496 27.4 74.9496 28.8C74.9496 30.2 74.0996 31.95 73.1996 32.85H80.0996C80.6996 31.9 81.4996 29.8 81.4996 27.15C81.4996 23.3 79.4996 21 75.8996 21C71.1996 21 68.7996 25.1 67.9996 29.2V21.5H60.8496V46H67.9996ZM94.3777 46.5C98.1277 46.5 100.628 44.75 101.678 43.4L99.6277 37.55C98.8777 38.9 97.5277 40.15 95.9777 40.15C94.5777 40.15 93.5777 39.45 93.5777 37.45V26.95H100.378V21.5H93.5777V14.85L86.4277 18.6V21.5H82.7777V26.95H86.4277V38.75C86.4277 43.3 88.9777 46.5 94.3777 46.5ZM111.985 46V26.95H118.135V21.5H111.985V20.05C111.985 18.45 112.735 17.5 114.435 17.5C115.935 17.5 117.235 18.4 118.135 19.5L120.585 14.4C119.435 13.4 117.085 12 113.835 12C107.985 12 104.835 15.6 104.835 20.9V21.5H101.435V26.95H104.835V46H111.985ZM131.371 46.5C139.021 46.5 143.871 41.25 143.871 33.75C143.871 26.3 139.021 21 131.371 21C123.921 21 119.121 26.3 119.121 33.75C119.121 41.25 123.921 46.5 131.371 46.5ZM131.471 40.7C128.471 40.7 126.371 38.75 126.371 33.75C126.371 28.7 128.471 26.8 131.471 26.8C134.521 26.8 136.621 28.7 136.621 33.75C136.621 38.75 134.521 40.7 131.471 40.7ZM155.06 46V12.5H147.91V46H155.06ZM167.267 18.6V12.5H160.117V18.6H167.267ZM167.267 46V21.5H160.117V46H167.267ZM183.324 46.5C190.974 46.5 195.824 41.25 195.824 33.75C195.824 26.3 190.974 21 183.324 21C175.874 21 171.074 26.3 171.074 33.75C171.074 41.25 175.874 46.5 183.324 46.5ZM183.424 40.7C180.424 40.7 178.324 38.75 178.324 33.75C178.324 28.7 180.424 26.8 183.424 26.8C186.474 26.8 188.574 28.7 188.574 33.75C188.574 38.75 186.474 40.7 183.424 40.7Z" fill="white"/>
<circle cx="208.5" cy="40.5" r="5.5" fill="url(#paint0_linear_164_149)"/>
<defs>
<linearGradient id="paint0_linear_164_149" x1="208.5" y1="35" x2="208.5" y2="46" gradientUnits="userSpaceOnUse">
<stop stop-color="#D07C43"/>
<stop offset="1" stop-color="#C6692C"/>
</linearGradient>
</defs>
</svg>
