<svg width="116" height="32" viewBox="0 0 116 32" fill="none" xmlns="http://www.w3.org/2000/svg">
<path d="M5.41517 25V19.6673H9.12607C13.4142 19.6673 16.6028 17.7156 16.6028 13.1801C16.6028 8.5346 13.3592 6.58294 9.12607 6.58294H1.48436V25H5.41517ZM8.98863 10.0739C11.0227 10.0739 12.4796 10.8711 12.4796 13.1801C12.4796 15.3517 11.0227 16.1763 8.98863 16.1763H5.41517V10.0739H8.98863ZM24.414 25.2749C28.6197 25.2749 31.286 22.3886 31.286 18.2654C31.286 14.1697 28.6197 11.2559 24.414 11.2559C20.3183 11.2559 17.6794 14.1697 17.6794 18.2654C17.6794 22.3886 20.3183 25.2749 24.414 25.2749ZM24.469 22.0863C22.8197 22.0863 21.6652 21.0142 21.6652 18.2654C21.6652 15.4891 22.8197 14.4445 24.469 14.4445C26.1457 14.4445 27.3002 15.4891 27.3002 18.2654C27.3002 21.0142 26.1457 22.0863 24.469 22.0863ZM37.3837 25V17.8806C37.3837 15.654 38.6481 14.1972 39.995 14.1972C40.8472 14.1972 41.2045 14.7744 41.2045 15.5441C41.2045 16.3137 40.7372 17.2758 40.2424 17.7706H44.0358C44.3657 17.2483 44.8055 16.0938 44.8055 14.637C44.8055 12.5204 43.7059 11.2559 41.7268 11.2559C39.1429 11.2559 37.8235 13.51 37.3837 15.764V11.5308H33.4529V25H37.3837ZM51.8854 25.2749C53.947 25.2749 55.3214 24.3128 55.8987 23.5706L54.7716 20.3545C54.3593 21.0967 53.6171 21.7839 52.765 21.7839C51.9953 21.7839 51.4456 21.3991 51.4456 20.2995V14.527H55.184V11.5308H51.4456V7.87488L47.5148 9.93649V11.5308H45.5081V14.527H47.5148V21.0142C47.5148 23.5156 48.9167 25.2749 51.8854 25.2749ZM61.5651 25V14.527H64.9461V11.5308H61.5651V10.7336C61.5651 9.85403 61.9774 9.33175 62.912 9.33175C63.7366 9.33175 64.4513 9.82654 64.9461 10.4313L66.293 7.62749C65.6608 7.07772 64.3689 6.30806 62.5821 6.30806C59.366 6.30806 57.6343 8.2872 57.6343 11.2009V11.5308H55.7651V14.527H57.6343V25H61.5651ZM72.223 25.2749C76.4287 25.2749 79.095 22.3886 79.095 18.2654C79.095 14.1697 76.4287 11.2559 72.223 11.2559C68.1272 11.2559 65.4884 14.1697 65.4884 18.2654C65.4884 22.3886 68.1272 25.2749 72.223 25.2749ZM72.2779 22.0863C70.6287 22.0863 69.4742 21.0142 69.4742 18.2654C69.4742 15.4891 70.6287 14.4445 72.2779 14.4445C73.9547 14.4445 75.1092 15.4891 75.1092 18.2654C75.1092 21.0142 73.9547 22.0863 72.2779 22.0863ZM85.2463 25V6.58294H81.3155V25H85.2463ZM91.9573 9.93649V6.58294H88.0265V9.93649H91.9573ZM91.9573 25V11.5308H88.0265V25H91.9573ZM100.785 25.2749C104.991 25.2749 107.657 22.3886 107.657 18.2654C107.657 14.1697 104.991 11.2559 100.785 11.2559C96.6891 11.2559 94.0503 14.1697 94.0503 18.2654C94.0503 22.3886 96.6891 25.2749 100.785 25.2749ZM100.84 22.0863C99.1906 22.0863 98.0361 21.0142 98.0361 18.2654C98.0361 15.4891 99.1906 14.4445 100.84 14.4445C102.517 14.4445 103.671 15.4891 103.671 18.2654C103.671 21.0142 102.517 22.0863 100.84 22.0863Z" fill="white"/>
<ellipse cx="113.019" cy="22.0606" rx="2.98131" ry="3.13169" fill="#1D1A18"/>
</svg>
