<svg width="24" height="24" viewBox="0 0 24 24" fill="none" xmlns="http://www.w3.org/2000/svg">
<path d="M8.50188 8.49992C8.8924 8.1094 9.52557 8.1094 9.91609 8.49992L12.0019 10.5857L14.0876 8.49992C14.4782 8.1094 15.1113 8.1094 15.5019 8.49992C15.8924 8.89045 15.8924 9.52361 15.5019 9.91414L13.4161 11.9999L15.5019 14.0857C15.8924 14.4762 15.8924 15.1094 15.5019 15.4999C15.1113 15.8904 14.4782 15.8904 14.0876 15.4999L12.0019 13.4141L9.91609 15.4999C9.52556 15.8904 8.8924 15.8904 8.50187 15.4999C8.11135 15.1094 8.11135 14.4762 8.50187 14.0857L10.5876 11.9999L8.50188 9.91414C8.11135 9.52361 8.11135 8.89045 8.50188 8.49992Z" fill="white"/>
<path fill-rule="evenodd" clip-rule="evenodd" d="M22.002 12C22.002 17.5228 17.5248 22 12.002 22C6.47911 22 2.00195 17.5228 2.00195 12C2.00195 6.47715 6.47911 2 12.002 2C17.5248 2 22.002 6.47715 22.002 12ZM20.002 12C20.002 16.4183 16.4202 20 12.002 20C7.58368 20 4.00195 16.4183 4.00195 12C4.00195 7.58172 7.58368 4 12.002 4C16.4202 4 20.002 7.58172 20.002 12Z" fill="white"/>
</svg>
