<svg width="107" height="18" viewBox="0 0 107 18" fill="none" xmlns="http://www.w3.org/2000/svg">
<path d="M14.3801 1.40295H3.15651C2.18848 1.40295 1.40283 2.1886 1.40283 3.15663V14.3802C1.40283 15.3482 2.18848 16.1339 3.15651 16.1339H14.3801C15.3481 16.1339 16.1337 15.3482 16.1337 14.3802V3.15663C16.1337 2.1886 15.3481 1.40295 14.3801 1.40295ZM5.9624 7.01473V13.6787H3.85798V7.01473H5.9624ZM3.85798 5.07516C3.85798 4.58413 4.27887 4.20884 4.91019 4.20884C5.54152 4.20884 5.93785 4.58413 5.9624 5.07516C5.9624 5.56619 5.56958 5.96252 4.91019 5.96252C4.27887 5.96252 3.85798 5.56619 3.85798 5.07516ZM13.6786 13.6787H11.5742C11.5742 13.6787 11.5742 10.4309 11.5742 10.1714C11.5742 9.46988 11.2234 8.76841 10.3466 8.75438H10.3185C9.46976 8.75438 9.11903 9.4769 9.11903 10.1714C9.11903 10.4905 9.11903 13.6787 9.11903 13.6787H7.01461V7.01473H9.11903V7.91262C9.11903 7.91262 9.79595 7.01473 11.1568 7.01473C12.5492 7.01473 13.6786 7.97224 13.6786 9.91181V13.6787Z" fill="white"/>
<path d="M38.5357 1.7998C34.5599 1.7998 31.3364 5.0233 31.3364 8.99912C31.3364 12.3726 33.6594 15.1953 36.7911 15.9765C36.7575 15.8793 36.7359 15.7665 36.7359 15.6267V14.3962C36.4437 14.3962 35.9542 14.3962 35.8312 14.3962C35.3386 14.3962 34.9007 14.1844 34.6883 13.7909C34.4525 13.3535 34.4117 12.6846 33.8274 12.2754C33.654 12.1392 33.786 11.9838 33.9858 12.0048C34.3547 12.1092 34.6607 12.3624 34.9487 12.738C35.2355 13.1141 35.3704 13.1993 35.9062 13.1993C36.166 13.1993 36.5547 13.1843 36.9207 13.1267C37.1175 12.627 37.4576 12.1668 37.8734 11.9496C35.476 11.7031 34.3319 10.5104 34.3319 8.89113C34.3319 8.194 34.6289 7.51966 35.1335 6.95152C34.9679 6.38757 34.7597 5.23748 35.1971 4.79952C36.2758 4.79952 36.9279 5.49906 37.0845 5.68804C37.622 5.50385 38.2124 5.39946 38.8327 5.39946C39.4543 5.39946 40.047 5.50385 40.5858 5.68924C40.7405 5.50146 41.3933 4.79952 42.4744 4.79952C42.9135 5.23808 42.703 6.39297 42.5356 6.95572C43.0371 7.52266 43.3323 8.1952 43.3323 8.89113C43.3323 10.5092 42.19 11.7013 39.7962 11.949C40.455 12.2928 40.9355 13.2587 40.9355 13.9865V15.6267C40.9355 15.6891 40.9217 15.7341 40.9145 15.7875C43.7199 14.8042 45.7351 12.1404 45.7351 8.99912C45.7351 5.0233 42.5116 1.7998 38.5357 1.7998Z" fill="white"/>
<path d="M75.6015 3.98061C75.0524 4.22448 74.4625 4.38858 73.8434 4.4626C74.4757 4.08389 74.9606 3.48427 75.189 2.76931C74.598 3.11991 73.9427 3.37468 73.2449 3.51239C72.6866 2.91736 71.8913 2.54553 71.0111 2.54553C69.3207 2.54553 67.9505 3.91634 67.9505 5.60619C67.9505 5.84604 67.978 6.08015 68.0297 6.30336C65.486 6.17597 63.231 4.95722 61.7207 3.10499C61.4579 3.55714 61.307 4.08275 61.307 4.6445C61.307 5.70603 61.8469 6.64305 62.6681 7.1916C62.1666 7.17554 61.6943 7.03782 61.2818 6.80888C61.2818 6.82207 61.2818 6.83412 61.2818 6.84732C61.2818 8.3306 62.3364 9.56771 63.737 9.8483C63.4806 9.91831 63.2097 9.9556 62.9303 9.9556C62.7335 9.9556 62.5412 9.93609 62.3548 9.90109C62.7444 11.117 63.8748 12.0024 65.214 12.027C64.1668 12.8481 62.8471 13.3376 61.4126 13.3376C61.1658 13.3376 60.922 13.3232 60.6821 13.2946C62.0369 14.1627 63.6452 14.6694 65.3741 14.6694C71.0042 14.6694 74.0821 10.0055 74.0821 5.9608C74.0821 5.82825 74.0792 5.69628 74.0735 5.56488C74.672 5.1328 75.1913 4.594 75.6015 3.98061Z" fill="white"/>
<path d="M94.5932 1.75366C92.3374 1.75366 90.5024 3.59032 90.5024 5.84673V11.6923C90.5024 13.9481 92.3391 15.7831 94.5955 15.7831H100.441C102.697 15.7831 104.532 13.9464 104.532 11.69V5.84444C104.532 3.58862 102.695 1.75366 100.439 1.75366H94.5932ZM101.609 4.0919C101.932 4.0919 102.194 4.35379 102.194 4.67646C102.194 4.99914 101.932 5.26102 101.609 5.26102C101.286 5.26102 101.025 4.99914 101.025 4.67646C101.025 4.35379 101.286 4.0919 101.609 4.0919ZM97.5172 5.26102C99.4515 5.26102 101.025 6.83407 101.025 8.76838C101.025 10.7027 99.4515 12.2757 97.5172 12.2757C95.5829 12.2757 94.0098 10.7027 94.0098 8.76838C94.0098 6.83407 95.5829 5.26102 97.5172 5.26102ZM97.5172 6.43014C96.897 6.43014 96.3023 6.67649 95.8638 7.115C95.4253 7.5535 95.1789 8.14824 95.1789 8.76838C95.1789 9.38852 95.4253 9.98326 95.8638 10.4218C96.3023 10.8603 96.897 11.1066 97.5172 11.1066C98.1373 11.1066 98.732 10.8603 99.1705 10.4218C99.6091 9.98326 99.8554 9.38852 99.8554 8.76838C99.8554 8.14824 99.6091 7.5535 99.1705 7.115C98.732 6.67649 98.1373 6.43014 97.5172 6.43014Z" fill="white"/>
</svg>
