<svg width="100%" height="100%" viewBox="0 0 19 18" fill="none" xmlns="http://www.w3.org/2000/svg">
    <path d="M9.53575 1.7998C5.55992 1.7998 2.33643 5.0233 2.33643 8.99912C2.33643 12.3726 4.65941 15.1953 7.79111 15.9765C7.75751 15.8793 7.73592 15.7665 7.73592 15.6267V14.3962C7.44374 14.3962 6.95419 14.3962 6.8312 14.3962C6.33865 14.3962 5.90069 14.1844 5.68831 13.7909C5.45253 13.3535 5.41174 12.6846 4.82739 12.2754C4.65401 12.1392 4.78599 11.9838 4.98578 12.0048C5.35474 12.1092 5.66071 12.3624 5.94868 12.738C6.23546 13.1141 6.37044 13.1993 6.90619 13.1993C7.16597 13.1993 7.55473 13.1843 7.9207 13.1267C8.11748 12.627 8.45765 12.1668 8.87341 11.9496C6.47604 11.7031 5.33194 10.5104 5.33194 8.89113C5.33194 8.194 5.62892 7.51966 6.13347 6.95152C5.96788 6.38757 5.7597 5.23748 6.19706 4.79952C7.27576 4.79952 7.9279 5.49906 8.08448 5.68804C8.62203 5.50385 9.21238 5.39946 9.83272 5.39946C10.4543 5.39946 11.047 5.50385 11.5858 5.68924C11.7405 5.50145 12.3933 4.79952 13.4744 4.79952C13.9135 5.23808 13.703 6.39297 13.5356 6.95572C14.0371 7.52266 14.3323 8.1952 14.3323 8.89113C14.3323 10.5092 13.19 11.7013 10.7962 11.949C11.455 12.2928 11.9355 13.2587 11.9355 13.9865V15.6267C11.9355 15.6891 11.9217 15.7341 11.9145 15.7875C14.7199 14.8042 16.7351 12.1404 16.7351 8.99912C16.7351 5.0233 13.5116 1.7998 9.53575 1.7998Z" fill="white"/>
    </svg>
    