<svg width="32" height="33" viewBox="0 0 32 33" fill="none" xmlns="http://www.w3.org/2000/svg">
<g filter="url(#filter0_d_165_189)">
<path d="M6 8.8C6 8.35817 6.35817 8 6.8 8H25.225C25.6668 8 26.025 8.35817 26.025 8.8C26.025 9.24183 25.6668 9.6 25.225 9.6H6.8C6.35817 9.6 6 9.24183 6 8.8Z" fill="white"/>
<path d="M6 15.8C6 15.3582 6.35817 15 6.8 15H25.225C25.6668 15 26.025 15.3582 26.025 15.8C26.025 16.2418 25.6668 16.6 25.225 16.6H6.8C6.35817 16.6 6 16.2418 6 15.8Z" fill="white"/>
<path d="M6.8127 22.5C6.37087 22.5 6.0127 22.8582 6.0127 23.3C6.0127 23.7418 6.37087 24.1 6.8127 24.1H25.2377C25.6795 24.1 26.0377 23.7418 26.0377 23.3C26.0377 22.8582 25.6795 22.5 25.2377 22.5H6.8127Z" fill="white"/>
</g>
<defs>
<filter id="filter0_d_165_189" x="-4" y="0" width="40" height="40" filterUnits="userSpaceOnUse" color-interpolation-filters="sRGB">
<feFlood flood-opacity="0" result="BackgroundImageFix"/>
<feColorMatrix in="SourceAlpha" type="matrix" values="0 0 0 0 0 0 0 0 0 0 0 0 0 0 0 0 0 0 127 0" result="hardAlpha"/>
<feOffset dy="4"/>
<feGaussianBlur stdDeviation="2"/>
<feComposite in2="hardAlpha" operator="out"/>
<feColorMatrix type="matrix" values="0 0 0 0 0 0 0 0 0 0 0 0 0 0 0 0 0 0 0.25 0"/>
<feBlend mode="normal" in2="BackgroundImageFix" result="effect1_dropShadow_165_189"/>
<feBlend mode="normal" in="SourceGraphic" in2="effect1_dropShadow_165_189" result="shape"/>
</filter>
</defs>
</svg>
