<svg width="100%" height="100%" viewBox="0 0 18 18" fill="none" xmlns="http://www.w3.org/2000/svg">
    <path d="M6.59322 1.75366C4.3374 1.75366 2.50244 3.59032 2.50244 5.84673V11.6923C2.50244 13.9481 4.3391 15.7831 6.5955 15.7831H12.4411C14.6969 15.7831 16.5319 13.9464 16.5319 11.69V5.84444C16.5319 3.58862 14.6952 1.75366 12.4388 1.75366H6.59322ZM13.6091 4.0919C13.9318 4.0919 14.1936 4.35379 14.1936 4.67646C14.1936 4.99914 13.9318 5.26102 13.6091 5.26102C13.2864 5.26102 13.0245 4.99914 13.0245 4.67646C13.0245 4.35379 13.2864 4.0919 13.6091 4.0919ZM9.51716 5.26102C11.4515 5.26102 13.0245 6.83407 13.0245 8.76838C13.0245 10.7027 11.4515 12.2757 9.51716 12.2757C7.58285 12.2757 6.0098 10.7027 6.0098 8.76838C6.0098 6.83407 7.58285 5.26102 9.51716 5.26102ZM9.51716 6.43014C8.89702 6.43014 8.30228 6.67649 7.86378 7.115C7.42527 7.5535 7.17892 8.14824 7.17892 8.76838C7.17892 9.38852 7.42527 9.98327 7.86378 10.4218C8.30228 10.8603 8.89702 11.1066 9.51716 11.1066C10.1373 11.1066 10.732 10.8603 11.1705 10.4218C11.6091 9.98327 11.8554 9.38852 11.8554 8.76838C11.8554 8.14824 11.6091 7.5535 11.1705 7.115C10.732 6.67649 10.1373 6.43014 9.51716 6.43014V6.43014Z" fill="white"/>
</svg>
    