<svg width="100%" height="100%" viewBox="0 0 18 18" fill="none" xmlns="http://www.w3.org/2000/svg">
    <g filter="url(#filter0_d_135_939)">
    <path d="M17.3801 1.40295H6.15651C5.18848 1.40295 4.40283 2.1886 4.40283 3.15663V14.3802C4.40283 15.3482 5.18848 16.1339 6.15651 16.1339H17.3801C18.3481 16.1339 19.1337 15.3482 19.1337 14.3802V3.15663C19.1337 2.1886 18.3481 1.40295 17.3801 1.40295ZM8.9624 7.01473V13.6787H6.85798V7.01473H8.9624ZM6.85798 5.07516C6.85798 4.58413 7.27887 4.20884 7.91019 4.20884C8.54152 4.20884 8.93785 4.58413 8.9624 5.07516C8.9624 5.56619 8.56958 5.96252 7.91019 5.96252C7.27887 5.96252 6.85798 5.56619 6.85798 5.07516ZM16.6786 13.6787H14.5742C14.5742 13.6787 14.5742 10.4309 14.5742 10.1714C14.5742 9.46988 14.2234 8.76841 13.3466 8.75438H13.3185C12.4698 8.75438 12.119 9.4769 12.119 10.1714C12.119 10.4905 12.119 13.6787 12.119 13.6787H10.0146V7.01473H12.119V7.91262C12.119 7.91262 12.7959 7.01473 14.1568 7.01473C15.5492 7.01473 16.6786 7.97224 16.6786 9.91181V13.6787Z" fill="white"/>
    </g>
    <defs>
    <filter id="filter0_d_135_939" x="-1" y="0" width="25.5366" height="25.5369" filterUnits="userSpaceOnUse" color-interpolation-filters="sRGB">
    <feFlood flood-opacity="0" result="BackgroundImageFix"/>
    <feColorMatrix in="SourceAlpha" type="matrix" values="0 0 0 0 0 0 0 0 0 0 0 0 0 0 0 0 0 0 127 0" result="hardAlpha"/>
    <feOffset dy="4"/>
    <feGaussianBlur stdDeviation="2"/>
    <feComposite in2="hardAlpha" operator="out"/>
    <feColorMatrix type="matrix" values="0 0 0 0 0 0 0 0 0 0 0 0 0 0 0 0 0 0 0.25 0"/>
    <feBlend mode="normal" in2="BackgroundImageFix" result="effect1_dropShadow_135_939"/>
    <feBlend mode="normal" in="SourceGraphic" in2="effect1_dropShadow_135_939" result="shape"/>
    </filter>
    </defs>
    </svg>
    