<svg width="100%" height="100%" viewBox="0 0 18 18" fill="none" xmlns="http://www.w3.org/2000/svg">
    <path d="M16.6015 3.98061C16.0524 4.22448 15.4625 4.38858 14.8434 4.4626C15.4757 4.08389 15.9606 3.48427 16.189 2.76931C15.598 3.11991 14.9427 3.37468 14.2449 3.51239C13.6866 2.91736 12.8913 2.54553 12.0111 2.54553C10.3207 2.54553 8.95047 3.91634 8.95047 5.60619C8.95047 5.84604 8.97801 6.08015 9.02966 6.30336C6.48599 6.17597 4.23095 4.95722 2.72071 3.10499C2.45791 3.55714 2.307 4.08275 2.307 4.6445C2.307 5.70603 2.84695 6.64305 3.66806 7.1916C3.16655 7.17554 2.69431 7.03782 2.28175 6.80888C2.28175 6.82207 2.28175 6.83412 2.28175 6.84732C2.28175 8.3306 3.3364 9.56771 4.73705 9.8483C4.48056 9.91831 4.20972 9.9556 3.93028 9.9556C3.73347 9.9556 3.54125 9.93609 3.35476 9.90109C3.74437 11.117 4.87476 12.0024 6.21401 12.027C5.16682 12.8481 3.84708 13.3376 2.41258 13.3376C2.16584 13.3376 1.92198 13.3232 1.68213 13.2946C3.03687 14.1627 4.64524 14.6694 6.3741 14.6694C12.0042 14.6694 15.0821 10.0055 15.0821 5.9608C15.0821 5.82825 15.0792 5.69628 15.0735 5.56488C15.672 5.1328 16.1913 4.594 16.6015 3.98061Z" fill="white"/>
</svg>
    