<svg width="20" height="10" viewBox="0 0 20 10" fill="none" xmlns="http://www.w3.org/2000/svg">
<path d="M14 1.76301L16.5858 4.04513H1C0.96548 4.04513 0.93137 4.04672 0.89776 4.04972C0.3935 4.09491 0 4.4708 0 4.92771C0 5.41516 0.44771 5.81029 1 5.81029H16.5858L14 8.09247C13.6095 8.43712 13.6095 8.99597 14 9.34062C14.3906 9.68535 15.0237 9.68535 15.4143 9.34062L19.7071 5.55179C20.0977 5.20714 20.0977 4.64829 19.7071 4.30364L15.4143 0.514853C15.0237 0.170179 14.3906 0.170179 14 0.514853C13.9512 0.557932 13.9085 0.604365 13.8719 0.653304C13.6156 0.995877 13.6583 1.46142 14 1.76301Z" fill="white"/>
</svg>
